<svg width="888" height="97" viewBox="0 0 888 97" fill="none" xmlns="http://www.w3.org/2000/svg">
<g clip-path="url(#clip0_4358_66193)">
<path d="M52.0394 95.3317L0.0761719 47.9042V0L52.0394 47.4275V95.3317Z" fill="white"/>
<path d="M104.002 95.3317L52.0391 47.9042V0L104.002 47.4275L154.998 0V47.9042L104.002 95.3317Z" fill="white"/>
<path d="M199.763 22.7842V95.284H182.099V0.238281H206.439L244.385 72.738V0.238281H262.049V95.284H237.709L199.763 22.7842Z" fill="white"/>
<path d="M304.577 82.9705C310.08 82.9705 315.693 81.0003 319.356 74.8355H337.94C334.151 85.322 323.812 97.0001 304.704 97.0001C282.06 97.0001 268.852 80.0788 268.852 59.7572C268.852 39.4357 283.377 23.1816 304.181 23.1816C324.985 23.1816 339.51 40.103 338.733 65.0005H286.786C287.705 77.0599 296.078 82.9705 304.577 82.9705ZM320.403 52.5597C320.006 40.6273 311.634 36.4327 304.054 36.4327C297.251 36.4327 288.482 40.7545 287.039 52.5597H320.403Z" fill="white"/>
<path d="M388.715 24.7549H406.649L381.389 95.3003H362.408L336.768 24.7549H355.748L372.24 76.9331L388.731 24.7549H388.715Z" fill="white"/>
<path d="M440.662 82.9705C446.165 82.9705 451.778 81.0003 455.441 74.8355H474.025C470.235 85.322 459.897 97.0001 440.789 97.0001C418.145 97.0001 404.937 80.0788 404.937 59.7572C404.937 39.4357 419.461 23.1816 440.266 23.1816C461.07 23.1816 475.595 40.103 474.818 65.0005H422.871C423.79 77.0599 432.163 82.9705 440.662 82.9705ZM456.487 52.5597C456.091 40.6273 447.719 36.4327 440.139 36.4327C433.336 36.4327 424.567 40.7545 423.124 52.5597H456.487Z" fill="white"/>
<path d="M515.38 41.7875C506.484 41.7875 500.601 45.0605 500.601 58.3116V95.2844H482.54V24.7549H500.332V37.0844C504.391 28.4252 510.797 24.8979 518.916 24.8979C520.089 24.8979 521.659 25.025 522.848 25.168V42.2165C520.232 41.9464 518.012 41.8193 515.396 41.8193L515.38 41.7875Z" fill="white"/>
<path d="M589.575 58.5815V95.3001H571.514V54.2598C571.514 46.522 570.863 37.7356 560.255 37.7356C548.22 37.7356 546.253 47.8249 546.253 58.5815V95.3001H528.192V24.7546H546.253V34.0653C550.186 27.122 557.369 23.1816 565.884 23.1816C577.92 23.1816 583.153 29.6006 585.912 34.7168C591.414 26.8519 598.47 23.1816 609.079 23.1816C626.743 23.1816 632.896 34.1925 632.896 50.8437V95.2842H614.835V54.2439C614.835 46.5061 614.185 37.7197 603.576 37.7197C591.541 37.7197 589.575 47.809 589.575 58.5656V58.5815Z" fill="white"/>
<path d="M662.2 17.0167H644.139V0.238281H662.2V17.0167ZM662.2 95.284H644.139V24.7544H662.2V95.284Z" fill="white"/>
<path d="M712.974 23.1816C729.861 23.1816 737.314 33.541 737.314 50.8437V95.2842H719.253V54.7682C719.253 45.5846 717.287 37.7197 707.091 37.7197C695.182 37.7197 692.566 47.4277 692.566 58.5656V95.2842H674.505V24.7546H692.566V34.0653C696.625 26.979 704.348 23.1816 712.974 23.1816Z" fill="white"/>
<path d="M779.716 82.9705C785.218 82.9705 790.832 81.0003 794.495 74.8355H813.079C809.289 85.322 798.95 97.0001 779.843 97.0001C757.199 97.0001 743.99 80.0788 743.99 59.7572C743.99 39.4357 758.515 23.1816 779.32 23.1816C800.124 23.1816 814.649 40.103 813.872 65.0005H761.924C762.844 77.0599 771.217 82.9705 779.716 82.9705ZM795.541 52.5597C795.145 40.6273 786.772 36.4327 779.193 36.4327C772.39 36.4327 763.621 40.7545 762.178 52.5597H795.541Z" fill="white"/>
<path d="M869.878 86.3705C865.423 94.1082 856.923 96.9841 849.597 96.9841C832.852 96.9841 818.978 82.5572 818.978 60.0113C818.978 37.4653 832.583 23.1656 849.597 23.1656C858.493 23.1656 866.089 27.233 869.878 33.7792V0.238281H887.939V95.284H869.878V86.3705ZM854.053 37.0681C844.761 37.0681 837.958 46.3788 837.958 60.1384C837.958 73.8979 844.761 83.0815 854.053 83.0815C863.995 83.0815 870.544 74.4222 870.544 60.0113C870.544 45.6003 863.995 37.0681 854.053 37.0681Z" fill="white"/>
</g>
<defs>
<clipPath id="clip0_4358_66193">
<rect width="887.847" height="97" fill="white" transform="translate(0.0761719)"/>
</clipPath>
</defs>
</svg>
