<svg width="178" height="21" viewBox="0 0 178 21" fill="none" xmlns="http://www.w3.org/2000/svg">
<path d="M0 11.1631L10.4179 20.6526V11.0677L0 1.57812V11.1631Z" fill="#0D3F48"/>
<path d="M10.4177 1.57812V11.1631L20.8324 20.6526L31.0595 11.1631V1.57812L20.8324 11.0677L10.4177 1.57812Z" fill="#0D3F48"/>
<path d="M48.9769 16.1312L41.3694 1.625H36.4895V20.6423H40.031V6.13612L47.6385 20.6423H52.5184V1.625H48.9769V16.1312Z" fill="#0D3F48"/>
<path d="M60.9685 6.21875C56.7975 6.21875 53.8855 9.34062 53.8855 13.537C53.8855 17.7334 56.5337 20.9888 61.0734 20.9888C64.9042 20.9888 66.977 18.6553 67.7368 16.554H64.0109C63.2765 17.7874 62.1479 18.1816 61.048 18.1816C59.344 18.1816 57.6622 17.0022 57.481 14.5861H67.8957C68.0547 9.6013 65.3238 6.21875 60.9685 6.21875ZM57.5319 12.0937C57.8212 9.73164 59.5792 8.86693 60.9431 8.86693C62.4658 8.86693 64.1444 9.70621 64.2207 12.0937H57.5319Z" fill="#0D3F48"/>
<path d="M77.9161 6.53125L74.6099 16.9714L71.3036 6.53125H67.5015L72.642 20.6432H76.4474L81.5085 6.53125H77.9161Z" fill="#0D3F48"/>
<path d="M88.2512 6.21875C84.0803 6.21875 81.1682 9.34062 81.1682 13.537C81.1682 17.7334 83.8164 20.9888 88.3561 20.9888C92.1869 20.9888 94.2597 18.6553 95.0195 16.554H91.2936C90.5592 17.7874 89.4306 18.1816 88.3307 18.1816C86.6267 18.1816 84.945 17.0022 84.7638 14.5861H95.1784C95.3374 9.6013 92.6066 6.21875 88.2512 6.21875ZM84.8146 12.0937C85.1039 9.73164 86.862 8.86693 88.2258 8.86693C89.7486 8.86693 91.4271 9.70621 91.5034 12.0937H84.8146Z" fill="#0D3F48"/>
<path d="M100.294 8.99822V6.53125H96.7268V20.6464H100.348V13.2487C100.348 10.6005 101.527 9.94241 103.311 9.94241C103.835 9.94241 104.28 9.96784 104.805 10.0219V6.61073C104.57 6.58529 104.255 6.55668 104.016 6.55668C102.389 6.55668 101.104 7.26562 100.291 8.99504L100.294 8.99822Z" fill="#0D3F48"/>
<path d="M122.093 6.21875C119.969 6.21875 118.551 6.95312 117.448 8.52677C116.898 7.5031 115.849 6.21875 113.433 6.21875C111.729 6.21875 110.286 7.00716 109.497 8.39642V6.53349H105.876V20.6486H109.497V13.3017C109.497 11.1495 109.891 9.13079 112.304 9.13079C114.428 9.13079 114.561 10.8888 114.561 12.437V20.6486H118.182V13.3017C118.182 11.1495 118.577 9.13079 120.99 9.13079C123.113 9.13079 123.247 10.8888 123.247 12.437V20.6486H126.868V11.7567C126.868 8.42504 125.634 6.22193 122.093 6.22193V6.21875Z" fill="#0D3F48"/>
<path d="M132.746 6.53125H129.125V20.6464H132.746V6.53125Z" fill="#0D3F48"/>
<path d="M142.925 6.21875C141.193 6.21875 139.647 6.97855 138.834 8.39642V6.53349H135.213V20.6486H138.834V13.3017C138.834 11.0732 139.358 9.13079 141.746 9.13079C143.793 9.13079 144.184 10.7044 144.184 12.542V20.6486H147.805V11.7567C147.805 8.2947 146.311 6.22193 142.925 6.22193V6.21875Z" fill="#0D3F48"/>
<path d="M156.227 6.21875C152.056 6.21875 149.144 9.34062 149.144 13.537C149.144 17.7334 151.792 20.9888 156.331 20.9888C160.162 20.9888 162.235 18.6553 162.995 16.554H159.269C158.535 17.7874 157.406 18.1816 156.306 18.1816C154.602 18.1816 152.92 17.0022 152.739 14.5861H163.154C163.313 9.6013 160.582 6.21875 156.227 6.21875ZM152.79 12.0937C153.079 9.73164 154.837 8.86693 156.201 8.86693C157.724 8.86693 159.402 9.70621 159.479 12.0937H152.79Z" fill="#0D3F48"/>
<path d="M174.379 1.625V8.33922C173.619 7.02626 172.096 6.2156 170.313 6.2156C166.902 6.2156 164.174 9.15307 164.174 13.5879C164.174 18.0227 166.956 20.9856 170.313 20.9856C171.782 20.9856 173.489 20.407 174.379 18.862V20.6455H178V1.625H174.379ZM171.203 18.2039C169.34 18.2039 167.976 16.3664 167.976 13.6133C167.976 10.8602 169.34 8.99729 171.203 8.99729C173.196 8.99729 174.509 10.7553 174.509 13.5879C174.509 16.4205 173.196 18.2039 171.203 18.2039Z" fill="#0D3F48"/>
<path d="M130.933 0.489222L128.766 2.65625L130.933 4.82327L133.1 2.65624L130.933 0.489222Z" fill="#0D3F48"/>
</svg>
