<svg width="205" height="24" viewBox="0 0 205 24" fill="none" xmlns="http://www.w3.org/2000/svg">
<g clip-path="url(#clip0_5880_11259)">
<path d="M76.4932 5.73535C81.7235 5.73535 85.375 9.92186 85.1797 16.082H72.1201C72.3513 19.0657 74.4561 20.5243 76.5928 20.5244V20.5283C77.9761 20.5283 79.3877 20.0409 80.3086 18.5156H84.9805C84.0276 21.1102 81.4287 24 76.625 24C70.9323 24 67.6115 19.8169 67.6113 14.7852C67.6113 9.75329 71.2629 5.73548 76.4932 5.73535ZM110.706 5.73535C115.936 5.73535 119.588 9.92186 119.393 16.082H106.333C106.564 19.0657 108.669 20.5243 110.806 20.5244V20.5283C112.189 20.5283 113.601 20.0409 114.521 18.5156H119.193C118.241 21.1102 115.642 24 110.838 24C105.145 24 101.824 19.8169 101.824 14.7852C101.824 9.75329 105.476 5.73548 110.706 5.73535ZM204.404 23.5752H199.863V21.3701C198.743 23.2843 196.606 23.996 194.765 23.9961C190.555 23.9961 187.066 20.426 187.066 14.8477C187.066 9.26936 190.487 5.73145 194.765 5.73145C197.001 5.7315 198.911 6.73781 199.863 8.35742V0.0585938H204.404V23.5752ZM38.9883 11.8525L26.168 23.5869L13.1035 11.8525V23.5869L0.0390625 11.8525V0L13.1035 11.7344V0L26.168 11.7344L38.9883 0V11.8525ZM93.6035 19.0342L97.75 6.12402H102.254L95.9033 23.5791H91.1318L84.6855 6.12402H89.457L93.6035 19.0342ZM125.807 9.1748C126.827 7.0323 128.438 6.15918 130.479 6.15918C130.774 6.15919 131.169 6.1912 131.468 6.22656V10.4443C130.81 10.3775 130.252 10.3467 129.595 10.3467L129.59 10.3428C127.354 10.3429 125.875 11.1524 125.875 14.4307V23.5791H121.334V6.12402H125.807V9.1748ZM153.148 5.73535C157.589 5.73549 159.136 8.45947 159.136 12.5791V23.5752H154.596V13.4209C154.596 11.5064 154.432 9.33203 151.765 9.33203C148.739 9.33209 148.244 11.8288 148.244 14.4902V23.5791H143.704V13.4248C143.704 11.5103 143.54 9.33594 140.873 9.33594C137.848 9.33615 137.354 11.8328 137.354 14.4941V23.5791H132.812V6.12402H137.354V8.42773C138.342 6.71 140.148 5.73535 142.289 5.73535C145.314 5.73549 146.63 7.32315 147.323 8.58887C148.707 6.64293 150.481 5.73535 153.148 5.73535ZM61.46 17.9971V0.0585938H65.9014V23.5752H59.7822L50.2422 5.6377V23.5752H45.8008V0.0585938H51.9199L61.46 17.9971ZM166.502 23.5752H161.961V6.12402H166.502V23.5752ZM179.268 5.73535C183.513 5.73554 185.387 8.29835 185.387 12.5791V23.5752H180.846V13.5508C180.846 11.2785 180.351 9.33203 177.788 9.33203C174.794 9.33204 174.137 11.7345 174.137 14.4902V23.5752H169.596V6.12402H174.137V8.42773C175.157 6.67465 177.099 5.73535 179.268 5.73535ZM195.885 9.1709C193.549 9.1709 191.838 11.4747 191.838 14.8789C191.838 18.2833 193.549 20.5557 195.885 20.5557C198.384 20.5556 200.03 18.4132 200.03 14.8477C200.03 11.2822 198.384 9.17093 195.885 9.1709ZM76.4619 9.01367C74.7517 9.01367 72.5464 10.083 72.1836 13.0039H80.5713C80.4716 10.0518 78.3674 9.01382 76.4619 9.01367ZM110.675 9.01367C108.965 9.01367 106.759 10.083 106.396 13.0039H114.784C114.684 10.0518 112.58 9.01382 110.675 9.01367ZM166.502 4.20996H161.961V0.0585938H166.502V4.20996Z" fill="#131313"/>
</g>
<defs>
<clipPath id="clip0_5880_11259">
<rect width="204.364" height="24" fill="white" transform="translate(0.0390625)"/>
</clipPath>
</defs>
</svg>
