<svg xmlns="http://www.w3.org/2000/svg" width="2240" height="1000" viewBox="0 0 2240 1000" font-family="'Plus Jakarta Sans','DejaVu Sans',sans-serif">
<defs>
<linearGradient id="bg" x1="0" y1="0" x2="1" y2="1"><stop offset="0" stop-color="#eff5f1"/><stop offset="1" stop-color="#e3efe8"/></linearGradient>
<radialGradient id="glow" cx="0.16" cy="0.12" r="0.5"><stop offset="0" stop-color="#ffffff" stop-opacity="0.55"/><stop offset="1" stop-color="#ffffff" stop-opacity="0"/></radialGradient>
<filter id="sh" x="-20%" y="-20%" width="140%" height="150%"><feDropShadow dx="0" dy="10" stdDeviation="16" flood-color="#12333b" flood-opacity="0.10"/></filter>
</defs>
<rect width="2240" height="1000" rx="28" fill="url(#bg)"/>
<rect width="2240" height="1000" rx="28" fill="url(#glow)"/>
<path d="M 1070 215 C 1285.0 215 1285.0 470 1500 470" fill="none" stroke="#a9cfbb" stroke-width="4.5" stroke-linecap="round"/>
<circle cx="1070" cy="215" r="9" fill="#12333b"/>
<circle cx="1500" cy="470" r="9" fill="#12333b"/>
<path d="M 1070 500 C 1285.0 500 1285.0 500 1500 500" fill="none" stroke="#a9cfbb" stroke-width="4.5" stroke-linecap="round"/>
<circle cx="1070" cy="500" r="9" fill="#12333b"/>
<circle cx="1500" cy="500" r="9" fill="#12333b"/>
<path d="M 1070 785 C 1285.0 785 1285.0 530 1500 530" fill="none" stroke="#a9cfbb" stroke-width="4.5" stroke-linecap="round"/>
<circle cx="1070" cy="785" r="9" fill="#12333b"/>
<circle cx="1500" cy="530" r="9" fill="#12333b"/>
<rect x="170" y="90" width="900" height="250" rx="26" fill="#ffffff" filter="url(#sh)"/>
<rect x="170" y="90" width="900" height="250" rx="26" fill="none" stroke="#e7efea"/>
<rect x="208" y="173" width="84" height="84" rx="20" fill="#d5ebde"/>
<circle cx="244" cy="209" r="16" fill="none" stroke="#16463e" stroke-width="4.5"/>
<line x1="257" y1="222" x2="268" y2="233" stroke="#16463e" stroke-width="4.5" stroke-linecap="round"/>
<text x="330" y="185" font-family="'Plus Jakarta Sans','DejaVu Sans',sans-serif" font-size="42" font-weight="700" fill="#12333b">Catalog</text>
<text x="330" y="231" font-family="'Plus Jakarta Sans','DejaVu Sans',sans-serif" font-size="29" font-weight="500" fill="#5e726c">Pay per call, at a price you set live.</text>
<rect x="330" y="267" width="154" height="46" rx="23" fill="#dcede4"/>
<text x="407" y="297" text-anchor="middle" font-family="'Plus Jakarta Sans','DejaVu Sans',sans-serif" font-size="25" font-weight="600" fill="#16463e">AI agent</text>
<rect x="500" y="267" width="182" height="46" rx="23" fill="#dcede4"/>
<text x="591" y="297" text-anchor="middle" font-family="'Plus Jakarta Sans','DejaVu Sans',sans-serif" font-size="25" font-weight="600" fill="#16463e">Stablecoin</text>
<rect x="698" y="267" width="182" height="46" rx="23" fill="#e9f3c6"/>
<text x="790" y="297" text-anchor="middle" font-family="'Plus Jakarta Sans','DejaVu Sans',sans-serif" font-size="25" font-weight="600" fill="#4c5d1f">x402 · mpp</text>
<circle cx="110" cy="215" r="30" fill="#ffffff" stroke="#c4d9cc" stroke-width="3" filter="url(#sh)"/>
<text x="110" y="227" text-anchor="middle" font-family="'Plus Jakarta Sans','DejaVu Sans',sans-serif" font-size="34" font-weight="700" fill="#12333b">1</text>
<rect x="170" y="375" width="900" height="250" rx="26" fill="#133139" filter="url(#sh)"/>
<rect x="208" y="458" width="84" height="84" rx="20" fill="#8fb63f"/>
<rect x="228" y="484" width="44" height="32" rx="6" fill="none" stroke="#12333b" stroke-width="4.5"/>
<line x1="228" y1="496" x2="272" y2="496" stroke="#12333b" stroke-width="4.5"/>
<line x1="236" y1="508" x2="248" y2="508" stroke="#12333b" stroke-width="4.5" stroke-linecap="round"/>
<text x="330" y="470" font-family="'Plus Jakarta Sans','DejaVu Sans',sans-serif" font-size="42" font-weight="700" fill="#ffffff">Embedded Web Flow</text>
<text x="330" y="516" font-family="'Plus Jakarta Sans','DejaVu Sans',sans-serif" font-size="29" font-weight="500" fill="#b9d2cc">Any cart total, checked out on your site.</text>
<rect x="330" y="552" width="154" height="46" rx="23" fill="#dcede4"/>
<text x="407" y="582" text-anchor="middle" font-family="'Plus Jakarta Sans','DejaVu Sans',sans-serif" font-size="25" font-weight="600" fill="#16463e">A person</text>
<rect x="500" y="552" width="97" height="46" rx="23" fill="#dcede4"/>
<text x="548" y="582" text-anchor="middle" font-family="'Plus Jakarta Sans','DejaVu Sans',sans-serif" font-size="25" font-weight="600" fill="#16463e">Card</text>
<rect x="613" y="552" width="296" height="46" rx="23" fill="#e9f3c6"/>
<text x="761" y="582" text-anchor="middle" font-family="'Plus Jakarta Sans','DejaVu Sans',sans-serif" font-size="25" font-weight="600" fill="#4c5d1f">Stripe · Braintree</text>
<circle cx="110" cy="500" r="30" fill="#ffffff" stroke="#c4d9cc" stroke-width="3" filter="url(#sh)"/>
<text x="110" y="512" text-anchor="middle" font-family="'Plus Jakarta Sans','DejaVu Sans',sans-serif" font-size="34" font-weight="700" fill="#12333b">2</text>
<rect x="170" y="660" width="900" height="250" rx="26" fill="#ffffff" filter="url(#sh)"/>
<rect x="170" y="660" width="900" height="250" rx="26" fill="none" stroke="#e7efea"/>
<rect x="208" y="743" width="84" height="84" rx="20" fill="#d5ebde"/>
<path d="M 230 771 L 250 762 L 270 771 L 250 780 Z" fill="none" stroke="#16463e" stroke-width="4" stroke-linejoin="round"/>
<path d="M 230 785 L 250 776 L 270 785 L 250 794 Z" fill="none" stroke="#16463e" stroke-width="4" stroke-linejoin="round"/>
<path d="M 230 799 L 250 790 L 270 799 L 250 808 Z" fill="none" stroke="#16463e" stroke-width="4" stroke-linejoin="round"/>
<text x="330" y="755" font-family="'Plus Jakarta Sans','DejaVu Sans',sans-serif" font-size="42" font-weight="700" fill="#12333b">Merchant Plans</text>
<text x="330" y="801" font-family="'Plus Jakarta Sans','DejaVu Sans',sans-serif" font-size="29" font-weight="500" fill="#5e726c">One fixed price — credits, time or PAYG.</text>
<rect x="330" y="837" width="154" height="46" rx="23" fill="#dcede4"/>
<text x="407" y="867" text-anchor="middle" font-family="'Plus Jakarta Sans','DejaVu Sans',sans-serif" font-size="25" font-weight="600" fill="#16463e">AI agent</text>
<rect x="500" y="837" width="282" height="46" rx="23" fill="#dcede4"/>
<text x="641" y="867" text-anchor="middle" font-family="'Plus Jakarta Sans','DejaVu Sans',sans-serif" font-size="25" font-weight="600" fill="#16463e">Card · stablecoin</text>
<rect x="798" y="837" width="182" height="46" rx="23" fill="#e9f3c6"/>
<text x="890" y="867" text-anchor="middle" font-family="'Plus Jakarta Sans','DejaVu Sans',sans-serif" font-size="25" font-weight="600" fill="#4c5d1f">x402 · mpp</text>
<circle cx="110" cy="785" r="30" fill="#ffffff" stroke="#c4d9cc" stroke-width="3" filter="url(#sh)"/>
<text x="110" y="797" text-anchor="middle" font-family="'Plus Jakarta Sans','DejaVu Sans',sans-serif" font-size="34" font-weight="700" fill="#12333b">3</text>
<rect x="1500" y="375" width="620" height="250" rx="26" fill="#ffffff" filter="url(#sh)"/>
<rect x="1500" y="375" width="620" height="250" rx="26" fill="none" stroke="#e7efea"/>
<rect x="1538" y="458" width="84" height="84" rx="20" fill="#133139"/>
<ellipse cx="1580" cy="510" rx="20" ry="8" fill="none" stroke="#a7ce4e" stroke-width="4"/>
<ellipse cx="1580" cy="498" rx="20" ry="8" fill="none" stroke="#a7ce4e" stroke-width="4"/>
<ellipse cx="1580" cy="486" rx="20" ry="8" fill="none" stroke="#a7ce4e" stroke-width="4"/>
<line x1="1560" y1="486" x2="1560" y2="510" stroke="#a7ce4e" stroke-width="4"/>
<line x1="1600" y1="486" x2="1600" y2="510" stroke="#a7ce4e" stroke-width="4"/>
<text x="1660" y="454" font-family="'Plus Jakarta Sans','DejaVu Sans',sans-serif" font-size="26" font-weight="700" letter-spacing="2" fill="#8aa69c">YOU GET PAID</text>
<text x="1660" y="506" font-family="'Plus Jakarta Sans','DejaVu Sans',sans-serif" font-size="34" font-weight="700" fill="#12333b">Funds land in your account</text>
<text x="1660" y="546" font-family="'Plus Jakarta Sans','DejaVu Sans',sans-serif" font-size="27" font-weight="500" fill="#5e726c">minus a small Nevermined fee.</text>
</svg>